<?xml version="1.0" encoding="utf-8"?>
<!-- Generator: Adobe Illustrator 21.1.0, SVG Export Plug-In . SVG Version: 6.00 Build 0)  -->
<svg version="1.1" id="Layer_1" xmlns="http://www.w3.org/2000/svg" xmlns:xlink="http://www.w3.org/1999/xlink" x="0px" y="0px"
	 viewBox="0 0 674 268" style="enable-background:new 0 0 674 268;" xml:space="preserve">
<style type="text/css">
	.st0{fill:#C02147;}
	.st1{fill:#7F325C;}
	.st2{fill:none;}
	.st3{fill:#F6F4F5;}
</style>
<path class="st0" d="M65.9,42.1c-1.2,6.9-1.6,12.6-3.3,17.9c-4.9,16.1-10.3,32-15.3,48c-1.7,5.6-2.9,11.4-4.4,17.4
	c-6-4.2-8.5-10.7-6.5-16.6c3.3-9.6,7-19.1,10.3-28.8c4-11.9,7.8-24,12.1-37.3C44.1,46.1,28.8,46.3,20.1,61
	c-5.4-5.1-3.1-12.9,4.6-15.9c8.3-3.2,16.6-6.4,25.2-8.3c10.3-2.2,20.8-3.8,31.3-4.1c5.3-0.1,11.4,2.2,15.8,5.2
	c8.6,5.9,9.1,13,1.6,20.3c-5.2,5.1-11.9,8.7-18.1,12.8c-2.1,1.4-4.6,2.4-8.3,4.2c7.4,2.7,13,4.8,18.7,6.9
	c19.8,7.4,24.6,28.8,10.1,44c-15.9,16.6-35.5,26.4-57.4,31.8c-5,1.2-11.2,0.6-16.1-1.2c-5-1.9-5.4-7.6-1.3-11.7
	c7.1-7,14.4-14,22.5-19.8c9.4-6.8,19.7-12.6,29.7-18.5c1.7-1,6.3-0.7,6.6,0c0.8,2.5,0.6,5.5,0.2,8.2c-0.1,0.8-2.3,2.1-3.5,2
	c-11.9-1.2-20.3,6.5-29.5,11.7c-4.9,2.8-9.1,6.9-13.4,10.7c-1.1,1-2.2,3.2-1.8,4.3c0.4,1.2,2.7,2.4,4.1,2.3
	c4.8-0.4,9.8-0.6,14.3-2.2c17.4-5.9,32.5-15.4,44.4-29.7c7.6-9.1,6.1-18.2-5.2-22.1c-8.9-3.1-18.5-3.7-27.8-5.6
	c-2.3-0.5-6.1-1.1-6.4-2.2c-0.5-2.4,0.3-5.7,1.8-7.6c2-2.6,5.2-4.2,7.9-6.2c7.4-5.6,15.2-10.8,22.2-16.9c5.1-4.4,3.7-9.4-2.7-11.4
	C81.4,39.7,73.1,39.5,65.9,42.1z"/>
<path class="st0" d="M304.4,149c6.1-6.8,12.3-13.6,18.7-20.6c1.6,7,1.2,8.4-5.1,16.2c-3.5,4.3-7.2,8.4-10.9,12.5
	c-4.8,5.3-10.5,4.8-12.9-1.9c-2-5.6-2.2-11.9-2.8-18c-0.4-4.5-0.1-9.1-0.1-15.5c-18.2,9.6-25.6,27.3-39.6,38.1
	c-4.7-4-5.3-10.7-1.5-17.5c3.1-5.6,6.1-11.3,9.2-16.9c-0.7-0.5-1.3-1.1-2-1.6c-4.4,3.9-8.8,7.9-14.3,12.9
	c-0.4-5.9,0.3-10.4,4.1-14.3c4.2-4.4,8.4-8.9,12.9-12.9c0.9-0.8,4.7-0.2,5.2,0.7c1.7,3.5,2.8,7.3,3.7,11.2c0.5,2.4,0.1,5,1.6,8.6
	c3.1-3.5,6.1-7.2,9.5-10.4c3.4-3.2,7.2-6,11-8.6c4.1-2.8,8.3-1.2,9,3.1c1.2,7.6,1,15.4,1.2,23.2c0.1,3.7,0,7.4,0,11.2
	C302.2,148.5,303.3,148.7,304.4,149z"/>
<path class="st0" d="M181.3,219.1c-3.6,2.6-7.3,5.2-12.1,8.6c1.1-2.3,1.5-3.9,2.4-4.8c3.1-2.9,6.3-5.7,9.7-8.3
	c1.4-1.1,3.2-1.5,4.9-2.2c0.8,1.8,2.3,3.8,2.1,5.5c-0.4,3.5-1.8,6.9-2.5,10.4c-0.5,2.2-0.6,4.4-0.1,7.1c11.4-7.7,23-14.8,27.6-29.2
	c5.3,3,5.3,7.6,5.7,11.9c0.4,4.1,0.1,8.3,0.9,12.8c11.9-9.5,21.8-20.4,27.8-34.2c-0.3-0.6-0.7-1.2-1-1.8c-9.6,2.8-19.2,5.6-29.1,8.5
	c-1.6-3.8,0.4-6,3.8-7c7.9-2.4,16-4.1,23.8-6.9c3.5-1.2,6.4-4.2,9.2-6.8c1.8-1.6,2.9-4,5.5-7.7c0.9,4.5,1.4,7.4,2.1,10.9
	c4.1-0.9,7.9-1.8,11.8-2.7c-0.3,6-1,6.6-6.1,7.1c-5.9,0.6-11,2.3-13.5,8.8c-2.6,6.6-7,12.6-8.7,19.4c-1.3,5.2,0.6,11.1,1,16.7
	c0.2,2.6,0,5.2-1.1,7.9c-6.6-8-3.4-17.5-3.8-27.8c-3.8,4.1-6.4,7.6-9.7,10.3c-8.3,6.7-16.9,13.2-25.6,19.5c-1.3,0.9-4.5,0.4-5.9-0.7
	c-1.2-1-2.1-4-1.4-5.4c0.6-1.3,3.4-1.4,5.2-2.3c2.4-1.2,5.8-2,6.7-3.9c2.2-4.7,3.2-9.9,4.7-15c-0.9-0.5-1.7-0.9-2.6-1.4
	c-4.7,4.7-9.4,9.3-14,14c-3.2,3.2-6,6.7-9.6,9.3c-2.1,1.6-5.3,1.9-8,2.8c-0.7-3-2.1-6-1.8-8.9c0.5-4.5,2.1-8.9,3.2-13.3
	C182.3,219.9,181.8,219.5,181.3,219.1z"/>
<path class="st0" d="M129.4,222.6c-2.2,6.7-4.3,13.3-6.5,20c-4.5-1.1-6-3.2-4.4-8.3c1.4-4.7,4-9,5.2-13.7c0.6-2.6-0.8-5.7-0.9-8.6
	c-0.1-2.1-0.1-5.8,0.9-6.2c12.3-4.8,13.6-16.1,16-26.8c4.1,2.1,4.1,2.1,1.8,17.4c11.5-1.8,22.3-5.2,32.2-10.9
	c3.1-1.8,3.4-5.2-0.2-7.1c-3.5-1.9-7.3-4.1-11.2-4.5c-7.9-0.8-15.9-0.1-23.9-0.7c-8.3-0.6-14,3.6-19.2,9.6c-3.7-5.1-0.7-7.5,2.6-8.1
	c12.3-2.3,24.7-4.5,37.2-5.9c4.4-0.5,9.3,0.8,13.7,2c5.6,1.6,7.9,5.9,8,11.7c0.1,5.8-3,9.3-8.1,10.9c-8,2.5-16.1,5.5-24.4,6.7
	c-9.6,1.4-13.9,7.3-15.9,15.5c-0.5,1.9,1.1,4.9,2.6,6.5c10.5,10.5,21.3,20.8,31.9,31.2c1.2,1.2,2.5,2.6,2.8,4.1
	c0.2,1-1.1,3.2-2.1,3.3c-1.3,0.3-3.4-0.4-4.3-1.4c-6.4-7.1-12.7-14.3-18.9-21.6c-4.3-5-8.4-10.1-12.6-15.1
	C131,222.7,130.2,222.7,129.4,222.6z"/>
<path class="st0" d="M309.8,237.3c7.2,1.1,12.8-2.4,23-12.4c-0.9,2-1.4,4.4-2.8,5.9c-3.9,4.2-8,8.3-12.4,11.8
	c-5.3,4.2-11,1.5-10.7-5.3c0.2-4.5,2.4-8.9,3.8-13.3c0.8-2.4,1.7-4.9,2.5-7.3c-0.5-0.3-1-0.7-1.6-1c-5.5,4.4-11,8.8-16.5,13.2
	c-0.4-0.3-0.7-0.5-1.1-0.8c0.8-1.5,1.3-3.2,2.5-4.4c4.7-4.6,9.6-9,14.4-13.5c3.4-3.1,5.3-3.3,7.1,1.8c1.9,5.4,1.5,9.5-2.1,14
	C313.2,229.3,311.8,233.3,309.8,237.3z"/>
<path class="st1" d="M192.8,195.6c0-2.3,0-4.6,0.1-6.9c0-0.1,2.6-0.1,2.6,0c0.3,2.2,0.5,4.5,0.6,6.8
	C195,195.6,193.9,195.6,192.8,195.6z"/>
<path class="st2" d="M524.1,110.3c-10.9,0.1-16.7,6.1-17.9,16.1c0.5,0.5,1.1,0.9,1.6,1.4C513.3,122,518.7,116.2,524.1,110.3z"/>
<path class="st2" d="M521.8,110.4c-8.4,0.8-13.4,5.5-15.1,13.2c1.8,0.9,1.6,0.8,3.4,1.8c4.2-4.5,8.3-9,12.5-13.5
	C523.1,111.4,522.6,110.4,521.8,110.4z"/>
<path class="st2" d="M419.4,168c0.1,0.2,0.2,0.3,0.3,0.5c4.3-2.6,13.6-8.4,13.6-8.4c0.5-0.2,1-0.3,1.3-0.3c1.3-0.1,1.8,1.7,0.7,2.3
	c-4.7,2.7-9.5,5.4-14.2,8c-0.1,0.1-0.3,0-0.4-0.1c0.1,0.1,0.1,0.2,0.2,0.3c5.1-2.9,10.2-5.8,15.3-8.6c0.5-0.3,0.6-0.8,0.3-1.3
	c-0.3-0.4-0.5-0.9-0.8-1.3c-0.3-0.4-0.8-0.6-1.3-0.3C429.3,161.9,424.4,165,419.4,168z"/>
<path class="st2" d="M522.6,112c0.6-0.6,0.1-1.6-0.8-1.6c-4.9,0.4-8.6,2.2-11.2,5.1c3.1,2.7,1.7,1.5,4.8,4.2
	C517.8,117.2,520.2,114.6,522.6,112z"/>
<path class="st2" d="M510.6,115.6c0.2-0.2,0.4-0.5,0.7-0.7C511.1,115.1,510.9,115.3,510.6,115.6z"/>
<path class="st2" d="M511.6,114.6c0.3-0.3,0.7-0.6,1.1-0.9C512.3,114,512,114.3,511.6,114.6z"/>
<path class="st2" d="M512.7,113.7c0.4-0.3,0.8-0.5,1.2-0.8C513.5,113.1,513.1,113.4,512.7,113.7z"/>
<path class="st2" d="M509.7,116.7c0.2-0.2,0.4-0.5,0.6-0.7C510.1,116.2,509.9,116.5,509.7,116.7z"/>
<path class="st2" d="M514.3,112.7c0.3-0.2,0.6-0.3,0.9-0.5C514.9,112.3,514.6,112.5,514.3,112.7z"/>
<path class="st2" d="M507.4,121.1c0.2-0.4,0.3-0.9,0.5-1.3C507.8,120.2,507.6,120.7,507.4,121.1z"/>
<path class="st2" d="M506.7,123.7C506.7,123.7,506.7,123.7,506.7,123.7c0.1-0.2,0.1-0.3,0.1-0.5
	C506.8,123.4,506.7,123.5,506.7,123.7z"/>
<path class="st2" d="M507,122.6c0.1-0.3,0.2-0.7,0.3-1C507.2,121.9,507.1,122.3,507,122.6z"/>
<path class="st2" d="M515.7,112c0.3-0.1,0.6-0.3,0.9-0.4C516.3,111.7,516,111.8,515.7,112z"/>
<path class="st2" d="M508,119.7c0.2-0.5,0.4-0.9,0.7-1.3C508.4,118.8,508.2,119.2,508,119.7z"/>
<path class="st2" d="M508.9,118c0.2-0.3,0.3-0.6,0.5-0.9C509.2,117.4,509.1,117.7,508.9,118z"/>
<path class="st2" d="M518.6,111c0.5-0.1,1.1-0.2,1.6-0.3C519.7,110.7,519.2,110.8,518.6,111z"/>
<path class="st2" d="M510.1,125.5c0.1-0.1,0.2-0.2,0.3-0.3C510.2,125.3,510.2,125.4,510.1,125.5L510.1,125.5z"/>
<path class="st2" d="M521.8,110.4c-0.5,0-1,0.1-1.5,0.2C520.8,110.5,521.3,110.5,521.8,110.4C521.8,110.4,521.8,110.4,521.8,110.4z"
	/>
<path class="st2" d="M517.1,111.4c0.3-0.1,0.7-0.2,1-0.3C517.8,111.2,517.5,111.3,517.1,111.4z"/>
<path class="st0" d="M597.2,126.5c-0.9,0-1.1,0-1.2,0c-0.5,0.6-1.1,1.3-1.5,2c-6.4,8.9-13.8,16.8-23.8,21.7c-1.3,0.6-3,0.5-4.5,0.6
	c-0.5,0-0.9-0.3-1-0.8c-0.1-1.5-0.5-3.1,0-4.4c2.5-6.1,4.6-12.5,8.3-17.8c4.5-6.5,4.9-12.8,2.4-19.8c-0.7-2-1-4.1-1.4-6.2
	c-1.3-5.8-4.7-7-9-2.9c-7.4,7.1-14.7,14.3-22.1,21.5c-8.2,8-16.1,16.2-24.6,23.8c-3,2.7-7.3,4.1-11.3,5.4c-1.8,0.6-5.8-0.3-6.1-1.3
	c-0.6-2.3-0.6-6,0.8-7.5c6.8-7.2,14.3-13.7,21.3-20.7c2.8-2.8,5.8-5.7,7.7-9.2c2.5-4.5,0.6-8.1-4.5-9.7c-6.4-2-17,1.2-20.4,8.1
	c-3.9,7.8-10.2,11.9-17.2,15.8c-3.8,2.1-7.3,4.7-11,7.1c-0.6,0.4-1.5-0.1-1.4-0.8c0-0.6,0.2-1.1,0.4-1.5
	c7.9-16.1,5.1-25.6-10.5-33.1c-5.6-2.7-12-3.9-18.1-5.6c-7.4-2-15.1-3.3-22.4-5.8c-4.5-1.5-5.6-4.8-2.9-9.6
	c8.1-14.3,20.3-23.8,34.7-30.6c12-5.6,24.4-10,37.9-4.3c6.5,2.7,9.4,8.8,6.8,15.2c-0.7,1.7-0.2,3.9-0.1,6c0,0.4,0.3,0.8,0.7,0.9
	l1.8,0.5c0.4,0.1,0.8-0.1,1-0.4c1.2-1.8,3-3.6,3-5.4c0.1-5.9,0.1-12-1.3-17.7c-0.9-3.8-3.6-7.7-6.6-10.2
	c-10.5-8.9-22.9-7.5-34.5-3.5c-8.5,2.9-16.2,8.1-23.9,12.8c-12.4,7.5-20.9,18.6-26.3,31.9c-4.8,12-0.8,20,11.6,24.4
	c8.8,3.1,17.6,6.2,26.3,9.4c9.1,3.4,15.3,10.2,13.5,16.3c-3.2,10.4-7.9,19.8-18.4,25.6c-12.5,6.8-24.3,14.9-36.1,22.8
	c-1.5,1-2.8,4.9-2.1,6.3c0.9,1.6,4.4,3.3,6.2,2.8c6.5-1.8,13.6-3.3,19-6.9c14.6-9.8,28.4-20.7,42.6-31c5.1-3.7,10.4-7,15.6-10.4
	c0.2-0.1,0.5-0.2,0.7-0.1c0.6,0.1,1.2,0.3,1.8,0.4c-7.2,7.4-4.1,14.5-0.9,21.4c2,4.3,4.2,7.2,10.4,7.3c8.4,0.1,14-4.2,19.2-9.2
	c7.8-7.4,14.8-15.6,22.4-23.1c4.9-4.8,10.2-9.2,15.3-13.7c1.6,0.8,1.7,0.9,3.3,1.7c-0.1,1.2-0.2,2.4-0.6,3.4
	c-1.3,3.8-3.3,7.4-4.5,11.3c-2.7,8.2-6.6,16.2-3.4,25.3c3.2,9.1,9.1,11.3,16.3,4.9c6.7-6.1,13.1-12.7,18.7-19.8
	c2.5-3.1,3.2-7.5,4.7-11.9C598.2,127.1,597.8,126.5,597.2,126.5z M506.7,123.7C506.7,123.7,506.7,123.7,506.7,123.7
	c0-0.2,0.1-0.3,0.1-0.5c0-0.2,0.1-0.4,0.1-0.6c0.1-0.3,0.2-0.7,0.3-1c0.1-0.2,0.1-0.3,0.2-0.5c0.2-0.4,0.3-0.9,0.5-1.3
	c0,0,0-0.1,0-0.1c0.2-0.5,0.4-0.9,0.7-1.3c0.1-0.1,0.2-0.3,0.2-0.4c0.2-0.3,0.3-0.6,0.5-0.9c0.1-0.1,0.2-0.3,0.3-0.4
	c0.2-0.2,0.4-0.5,0.6-0.7c0.1-0.1,0.2-0.3,0.3-0.4c0.2-0.2,0.4-0.5,0.7-0.7c0.1-0.1,0.2-0.2,0.3-0.3c0.3-0.3,0.7-0.6,1.1-0.9
	c0,0,0,0,0,0c0.4-0.3,0.8-0.5,1.2-0.8c0.1-0.1,0.3-0.1,0.4-0.2c0.3-0.2,0.6-0.3,0.9-0.5c0.2-0.1,0.3-0.2,0.5-0.2
	c0.3-0.1,0.6-0.3,0.9-0.4c0.2-0.1,0.4-0.1,0.5-0.2c0.3-0.1,0.7-0.2,1-0.3c0.2,0,0.3-0.1,0.5-0.1c0.5-0.1,1.1-0.2,1.6-0.3
	c0,0,0.1,0,0.1,0c0.5-0.1,1-0.1,1.5-0.2c0,0,0,0,0.1,0c0.7-0.1,1.5-0.1,2.3-0.1c-4.6,4.9-9.2,9.9-13.8,14.8
	c-0.1,0.1-0.2,0.2-0.3,0.3l0,0c-0.7,0.8-1.5,1.6-2.2,2.4c-0.5-0.5-1.1-0.9-1.6-1.4C506.3,125.5,506.5,124.6,506.7,123.7z"/>
<path class="st1" d="M508.7,118.4c0.1-0.1,0.2-0.3,0.2-0.4C508.8,118.1,508.7,118.2,508.7,118.4z"/>
<path class="st1" d="M522.6,112c-4.1,4.4-8.2,8.8-12.2,13.2c4.6-4.9,9.2-9.9,13.8-14.8c-0.8,0-1.5,0-2.3,0.1
	C522.7,110.4,523.1,111.4,522.6,112z"/>
<path class="st1" d="M508,119.8c0,0,0-0.1,0-0.1C508,119.7,508,119.8,508,119.8z"/>
<path class="st1" d="M506.8,123.2c0-0.2,0.1-0.4,0.1-0.6C506.9,122.8,506.9,123,506.8,123.2z"/>
<path class="st1" d="M510.1,125.5c-1.8-0.9-1.6-0.8-3.3-1.8c-0.2,0.9-0.4,1.8-0.5,2.8c0.5,0.5,1.1,0.9,1.6,1.4
	C508.6,127.1,509.3,126.3,510.1,125.5z"/>
<path class="st1" d="M507.3,121.6c0.1-0.2,0.1-0.3,0.2-0.5C507.4,121.3,507.3,121.4,507.3,121.6z"/>
<path class="st1" d="M520.3,110.6C520.3,110.6,520.3,110.6,520.3,110.6C520.3,110.6,520.3,110.6,520.3,110.6z"/>
<path class="st1" d="M513.9,112.9c0.1-0.1,0.3-0.1,0.4-0.2C514.2,112.7,514,112.8,513.9,112.9z"/>
<path class="st1" d="M511.3,114.9c0.1-0.1,0.2-0.2,0.3-0.3C511.5,114.7,511.4,114.8,511.3,114.9z"/>
<path class="st1" d="M512.7,113.7C512.7,113.7,512.7,113.7,512.7,113.7C512.7,113.7,512.7,113.7,512.7,113.7z"/>
<path class="st1" d="M518.2,111.1c0.2,0,0.3-0.1,0.5-0.1C518.5,111,518.3,111,518.2,111.1z"/>
<path class="st1" d="M516.6,111.6c0.2-0.1,0.4-0.1,0.5-0.2C516.9,111.5,516.8,111.5,516.6,111.6z"/>
<path class="st1" d="M509.4,117.1c0.1-0.1,0.2-0.3,0.3-0.4C509.6,116.8,509.5,117,509.4,117.1z"/>
<path class="st1" d="M510.3,116c0.1-0.1,0.2-0.3,0.3-0.4C510.5,115.7,510.4,115.8,510.3,116z"/>
<path class="st1" d="M515.2,112.2c0.2-0.1,0.3-0.2,0.5-0.2C515.5,112,515.3,112.1,515.2,112.2z"/>
<path class="st3" d="M420.6,170.1C420.6,170.1,420.6,170.1,420.6,170.1c-0.3-0.5-0.6-1.1-0.9-1.6"/>
<path class="st0" d="M234.4,123.4c-0.3-4.5-2.7-8.8-3.1-13.3c-0.6-5.5-7.1-10.4-12.4-8.7c-15.5,5-24.9,17.6-35.9,28.2
	c-4.6,4.4-6.9,11.4-15.1,13.8c1.5-6.4,2.6-11.5,3.8-16.6c0.9-3.7,3-7.5,2.5-11c-0.5-3.3-3.2-6.6-5.9-8.9c-0.8-0.7-5.2,1.7-7,3.6
	c-3.5,3.7-6,8.2-9.3,12.1c-6.7,8-13.6,15.9-20.4,23.8c-0.7-0.4-1.4-0.8-2.1-1.2c0.3-1.9,0.2-4,0.8-5.8c2.7-7.3,6.4-14.3,8.1-21.8
	c0.8-3.5-2.2-7.9-3.5-11.8c-2.8,1.1-5.9,1.6-8.2,3.3c-3.9,2.8-7.7,6-10.6,9.8c-2.2,2.8-2.8,6.7-4.2,10.1c0.6,0.3,1.3,0.6,1.9,1
	c3.1-2.3,6.3-4.6,9.4-6.9c0.4,0.4,0.8,0.7,1.2,1.1c-1.6,4.5-3.4,9-4.9,13.6c-1.9,5.8,2.4,18,7.3,19.6c6.7,2.3,8.3-4.5,11.4-7.9
	c7.3-8,13.9-16.6,20.9-24.9c0.6,0.1,1.1,0.3,1.7,0.4c-0.4,10.9-7.8,23.2,5.6,32.3c4.8-5,9.5-9.9,14-14.8c4.6-5,9-10,13.5-15.1
	c0.5,0.4,1.1,0.7,1.6,1.1c-0.3,1.8-0.6,3.7-0.7,5.5c-0.3,5.1-1,10.2-0.5,15.2c1,8.8,9.9,15.7,16,13.1
	C226.1,155.8,235.6,140.7,234.4,123.4z M226.9,130.8c-2.3,9.3-7,17.3-14.2,23.6c-1.8,1.5-5.3,2.3-7.5,1.6c-1.5-0.5-2.8-4-2.9-6.2
	c-0.6-12,3.2-22.6,12.2-30.7c3.1-2.8,7.4-4.2,11.2-6.2c-2.7,5.5-2.5,10.2,1.2,14.8C227.4,128.4,227.2,129.9,226.9,130.8z"/>
<path class="st0" d="M465.2,185.6c-0.7-3.5-1.2-6.2-2-10.5c-2.6,3.7-3.9,6.3-5.8,8.1c-2.6,2.5-5.5,5.2-8.8,6.3
	c-7.8,2.7-15.9,4.5-23.8,6.9c-3.4,1-5.4,3.2-3.8,7c9.9-2.9,19.5-5.7,30.8-9.1c-1.5,3.9-1.8,6.2-3.1,7.7
	c-9.6,11.3-19.3,22.5-29.1,33.6c-0.6,0.7-2.8,1-3.2,0.6c-0.9-0.9-1.7-2.5-1.6-3.8c0.1-3.4,1-6.8,1-10.1c0.1-7.1-3.7-9.4-9.6-5.7
	c-4.2,2.6-8,6-12.7,9.6c-0.1-2.5,0.1-4.2-0.4-5.7c-0.6-1.9-1.7-3.6-2.5-5.4c-1.5,0.8-3.2,1.3-4.5,2.4c-5,4.3-9.9,8.7-14.8,13
	c-1.2,1-2.6,1.7-3.9,2.6c-0.6-0.3-1.1-0.6-1.7-1c1.8-6.6,3.6-13.2,5.4-19.8c-0.7-0.2-1.3-0.5-2-0.7c-1.7,1.3-3.4,2.6-5.5,4.1
	c-1.6-5.8-5.4-6.2-8.8-3.4c-6,4.8-12,10-16.9,15.9c-2.3,2.7-2.8,7.6-2.6,11.4c0.2,4.9,4.1,6.4,8.1,3.5c3.1-2.2,5.8-5,8.6-7.6
	c2.8-2.6,5.5-5.2,9.2-8.7c0.3,3.4,0.2,5.1,0.7,6.7c0.5,1.9,1.1,4.6,2.5,5.2c1.4,0.6,4.1-0.5,5.5-1.6c2.9-2.4,5.4-5.4,8.1-8
	c2.4-2.3,5-4.4,8.1-7c1.4,8.4-10.5,12.6-4.2,21.1c8.5-7.8,16.5-15.2,24.4-22.6c1,0.5,1.9,1,2.9,1.5c0,4.6-0.6,9.3,0.2,13.7
	c0.5,2.7,2.8,5.6,5.1,7.3c0.8,0.6,4.4-1.7,6-3.3c7.6-7.4,14.9-15.1,22.3-22.7c0.4-0.5,1.3-0.5,2.1-0.8c0.8,9.3-3.3,18.8,4.2,26.6
	c0.9-2.6,1-5.2,0.8-7.8c-0.4-5.4-1.4-10.8-1.4-16.1c0-8.1,5.6-13.9,9.2-20.6c3.1-5.9,7.6-8,13.2-8.1c5.2-0.1,6.3-2.5,6.8-7.2
	C473.2,184.1,469.2,184.8,465.2,185.6z M339.8,240.2c-1.1-8,3.5-12.2,7.5-16.5c3.8-4.2,8.4-6.9,15.3-4.3
	C356.9,228.5,350.3,235.5,339.8,240.2z"/>
<path class="st0" d="M390.9,124.4c-5,6-10,12-15.1,18c-0.7-0.4-1.4-0.8-2.1-1.1c0.3-3.3,0.1-6.6,0.9-9.7c1.7-6.1,4.4-11.9,5.8-18.1
	c0.5-2.3-1.3-5.2-2.1-7.8c-1.9,1.3-3.9,2.6-5.8,4c-0.8,0.6-1.2,1.5-2.3,2.9c-0.9-1.5-1.3-2-1.4-2.5c-2-9.4-3.5-10-12.3-5.9
	c-11.3,5.4-18.4,14.9-24.5,25.2c-4.3,7.4-6.9,15.2-5.6,24.2c1.5,10,8.5,12.4,15.3,5.1c6.7-7.3,13-15,19.6-22.4
	c0.9-1.1,2.3-1.8,4.3-3.4c0,3.5-0.1,5.7,0,7.7c0.2,2.3,0.5,4.6,0.9,6.9c1,6.2,5.2,8.4,9.8,4.4c4.9-4.3,9.3-9.3,13.3-14.5
	C392.5,133.8,392.5,127,390.9,124.4z M335.3,151.9c-1.5-13.2,5.9-22,14.2-30.2c4.6-4.6,10.2-7.6,18-4
	C359.7,132.1,349.9,144.1,335.3,151.9z"/>
<path class="st0" d="M662.2,124.2c-5.1,6-10.1,12-16.1,19.1c-2.7-9.2,0.5-15.5,2.9-21.9c1.2-3.4,2.7-6.8,3.1-10.3
	c0.2-1.7-1.6-3.6-2.5-5.5c-1.7,0.9-3.7,1.6-5.2,2.7c-1.2,0.9-1.9,2.4-3,3.9c-0.8-1.1-1.3-1.6-1.5-2.1c-2.3-9.9-3.6-10.4-12.7-5.9
	c-11,5.4-18,14.7-24,24.8c-4.9,8.4-7.9,17.3-5,27.3c1.8,6.4,6.7,8.6,11.9,4.3c4.9-4.1,9.1-8.9,13.4-13.6c4.1-4.4,7.9-9.1,11.8-13.6
	c0.5,0.2,1,0.4,1.4,0.6c0,2.3-0.1,4.6,0,6.9c0.2,2.3,0.5,4.6,1,6.9c1.1,6.1,5.4,8,10,3.8c4.7-4.2,9.3-8.9,12.7-14.2
	c2.3-3.6,2.5-8.6,3.6-12.9C663.5,124.5,662.9,124.4,662.2,124.2z M605.8,153.4c-1.7-12.9,5.2-20.8,11.7-28.5
	c5.2-6.1,11.3-11.1,21.5-7.3C630.5,131.9,621.3,144.4,605.8,153.4z"/>
<path class="st0" d="M287.1,215.9c-1.6-5-4.2-6.8-8.7-5.6c-8.5,2.3-14.9,7.8-20.1,14.8c-0.3,0.4,0.1,1.2,0.1,1.8
	c1.4-0.7,2.7-1.4,5.3-2.8c-0.7,4.1-2,7.1-1.4,9.5c0.9,3.7,2.5,7.8,5.2,10.2c1.6,1.4,6.2,0.8,8.7-0.4
	C287.4,238.2,290.8,227.9,287.1,215.9z M271.9,241.9c-1.5,0-3.9-2.3-4.2-3.8c-1.7-9.7,4.7-18.7,15.1-22.4c0.5,2.9,0.8,5.5,1.5,7.9
	C285.9,229.2,277.7,242,271.9,241.9z"/>
<path class="st2" d="M470.8,227.2c4.8-4.2,8.5-7.5,12.3-10.9C475.2,215.5,471.7,218.7,470.8,227.2z"/>
<path class="st0" d="M493.5,224.9c-6.4,4.4-12.8,8.9-19.5,12.8c-1.5,0.9-4.2-0.5-6.4-0.8c0.9-1.9,1.3-4.3,2.7-5.6
	c4.5-4.1,9.6-7.6,14.1-11.8c1.8-1.6,2.5-4.4,3.6-6.6c-2.7-0.6-5.6-2-8.1-1.5c-7.7,1.5-16.8,13.6-17.1,21.7
	c-0.2,5.6,4.7,10.7,10,10.5c8.3-0.4,22.8-13,23.3-22.1C495.3,222.6,494.6,224.1,493.5,224.9z M483.1,216.3
	c-3.8,3.3-7.5,6.6-12.3,10.9C471.7,218.7,475.2,215.5,483.1,216.3z"/>
</svg>
