<?xml version="1.0" encoding="utf-8"?>
<!-- Generator: Adobe Illustrator 21.1.0, SVG Export Plug-In . SVG Version: 6.00 Build 0)  -->
<svg version="1.1" id="Layer_1" xmlns="http://www.w3.org/2000/svg" xmlns:xlink="http://www.w3.org/1999/xlink" x="0px" y="0px"
	 viewBox="0 0 674 268" style="enable-background:new 0 0 674 268;" xml:space="preserve">
<style type="text/css">
	.st0{fill:#C02147;}
	.st1{fill:#7F325C;}
	.st2{fill:none;}
	.st3{fill:#F6F4F5;}
</style>
<path class="st0" d="M95.7,40.8c-1.1,6-1.4,11-2.8,15.6c-4.2,14-9,27.9-13.3,41.9c-1.5,4.9-2.5,9.9-3.8,15.2
	c-5.3-3.7-7.4-9.4-5.6-14.5c2.9-8.4,6.1-16.7,9-25.1c3.5-10.4,6.8-20.9,10.6-32.5c-13,3.1-26.3,3.3-33.9,16.1
	C51,53,53,46.1,59.7,43.5c7.2-2.8,14.5-5.6,22-7.3c9-2,18.2-3.4,27.3-3.6c4.6-0.1,9.9,1.9,13.8,4.6c7.5,5.1,8,11.4,1.4,17.7
	c-4.6,4.4-10.4,7.6-15.8,11.2c-1.9,1.3-4,2.1-7.3,3.7c6.4,2.4,11.4,4.2,16.3,6c17.3,6.4,21.4,25.2,8.8,38.5
	c-13.9,14.5-31,23-50.1,27.8c-4.4,1.1-9.8,0.6-14-1.1c-4.3-1.7-4.7-6.6-1.1-10.2c6.2-6.1,12.6-12.2,19.6-17.3c8.2-6,17.2-11,26-16.1
	c1.5-0.9,5.5-0.6,5.7,0c0.7,2.2,0.6,4.8,0.2,7.2c-0.1,0.7-2,1.8-3,1.7c-10.4-1.1-17.7,5.7-25.8,10.2c-4.3,2.4-8,6.1-11.7,9.4
	c-1,0.8-1.9,2.8-1.6,3.7c0.4,1,2.4,2.1,3.5,2c4.2-0.3,8.6-0.6,12.5-1.9c15.2-5.1,28.3-13.5,38.7-25.9c6.6-7.9,5.3-15.9-4.5-19.3
	c-7.7-2.7-16.2-3.2-24.3-4.9c-2-0.4-5.4-0.9-5.6-1.9c-0.4-2.1,0.3-4.9,1.6-6.6c1.8-2.2,4.6-3.6,6.9-5.4c6.5-4.9,13.3-9.4,19.4-14.7
	c4.5-3.8,3.2-8.2-2.4-10C109.3,38.8,102,38.6,95.7,40.8z"/>
<path class="st0" d="M303.9,134.2c5.4-5.9,10.7-11.9,16.3-18c1.4,6.1,1.1,7.3-4.5,14.1c-3.1,3.7-6.3,7.3-9.5,10.9
	c-4.2,4.6-9.1,4.2-11.3-1.7c-1.8-4.9-2-10.4-2.4-15.7c-0.4-3.9-0.1-8-0.1-13.5c-15.9,8.4-22.3,23.8-34.5,33.3
	c-4.1-3.5-4.6-9.3-1.3-15.3c2.7-4.9,5.3-9.8,8-14.8c-0.6-0.5-1.2-0.9-1.8-1.4c-3.8,3.4-7.7,6.9-12.5,11.2c-0.3-5.2,0.3-9.1,3.5-12.5
	c3.7-3.8,7.3-7.7,11.3-11.2c0.8-0.7,4.1-0.2,4.5,0.6c1.5,3.1,2.5,6.4,3.2,9.7c0.4,2.1,0.1,4.3,1.4,7.5c2.7-3.1,5.3-6.3,8.3-9.1
	c3-2.8,6.3-5.2,9.6-7.5c3.6-2.4,7.3-1.1,7.9,2.7c1.1,6.6,0.8,13.5,1.1,20.2c0.1,3.2,0,6.5,0,9.7C302,133.7,303,134,303.9,134.2z"/>
<path class="st0" d="M196.5,195.4c-3.2,2.3-6.3,4.5-10.6,7.5c1-2,1.3-3.4,2.1-4.2c2.7-2.5,5.5-5,8.4-7.2c1.2-0.9,2.8-1.3,4.2-1.9
	c0.7,1.6,2,3.3,1.8,4.8c-0.3,3.1-1.5,6-2.2,9.1c-0.4,1.9-0.6,3.9-0.1,6.2c9.9-6.7,20.1-12.9,24.1-25.5c4.6,2.6,4.6,6.7,5,10.4
	c0.3,3.6,0.1,7.2,0.8,11.1c10.4-8.3,19-17.8,24.3-29.9c-0.3-0.5-0.6-1.1-0.9-1.6c-8.4,2.4-16.7,4.9-25.4,7.4
	c-1.4-3.3,0.4-5.2,3.3-6.1c6.9-2.1,14-3.6,20.8-6c3-1.1,5.6-3.7,8-5.9c1.6-1.4,2.5-3.5,4.8-6.7c0.7,4,1.2,6.5,1.8,9.5
	c3.6-0.8,6.9-1.6,10.3-2.4c-0.3,5.2-0.8,5.7-5.3,6.2c-5.2,0.5-9.6,2-11.7,7.7c-2.2,5.8-6.1,11-7.6,16.9c-1.1,4.5,0.5,9.7,0.9,14.6
	c0.1,2.3,0,4.5-0.9,6.9c-5.8-6.9-2.9-15.3-3.3-24.3c-3.3,3.5-5.6,6.7-8.5,9c-7.3,5.9-14.7,11.6-22.3,17c-1.1,0.8-3.9,0.4-5.1-0.6
	c-1.1-0.8-1.8-3.5-1.2-4.7c0.5-1.1,3-1.2,4.5-2c2.1-1,5.1-1.7,5.9-3.4c1.9-4.1,2.8-8.7,4.1-13.1c-0.7-0.4-1.5-0.8-2.2-1.2
	c-4.1,4.1-8.2,8.2-12.2,12.2c-2.8,2.8-5.3,5.8-8.4,8.2c-1.9,1.4-4.6,1.7-6.9,2.4c-0.6-2.6-1.8-5.2-1.6-7.7c0.4-3.9,1.8-7.7,2.8-11.6
	C197.3,196.1,196.9,195.8,196.5,195.4z"/>
<path class="st0" d="M151.1,198.5c-1.9,5.8-3.8,11.6-5.6,17.5c-4-0.9-5.2-2.8-3.8-7.3c1.2-4.1,3.5-7.8,4.5-11.9
	c0.6-2.3-0.7-5-0.8-7.5c-0.1-1.8-0.1-5,0.8-5.4c10.8-4.2,11.8-14.1,14-23.4c3.6,1.8,3.6,1.8,1.6,15.2c10-1.6,19.4-4.5,28.1-9.5
	c2.7-1.5,2.9-4.5-0.2-6.2c-3.1-1.7-6.4-3.6-9.8-3.9c-6.9-0.7-13.9-0.1-20.8-0.6c-7.2-0.5-12.2,3.1-16.7,8.4
	c-3.3-4.4-0.6-6.6,2.2-7.1c10.8-2,21.6-3.9,32.5-5.1c3.9-0.4,8.1,0.7,12,1.8c4.9,1.4,6.9,5.2,7,10.2c0.1,5.1-2.6,8.1-7.1,9.5
	c-7,2.2-14.1,4.8-21.3,5.9c-8.4,1.3-12.1,6.4-13.9,13.6c-0.4,1.6,0.9,4.3,2.3,5.7c9.2,9.2,18.6,18.2,27.8,27.3c1,1,2.2,2.3,2.4,3.6
	c0.2,0.9-1,2.8-1.8,2.9c-1.2,0.2-3-0.3-3.8-1.2c-5.6-6.2-11.1-12.5-16.5-18.9c-3.7-4.3-7.4-8.8-11-13.2
	C152.5,198.6,151.8,198.5,151.1,198.5z"/>
<path class="st0" d="M308.6,211.3c6.3,1,11.2-2.1,20.1-10.8c-0.8,1.7-1.2,3.8-2.4,5.2c-3.4,3.6-7,7.2-10.9,10.3
	c-4.6,3.7-9.6,1.3-9.4-4.6c0.2-3.9,2.1-7.7,3.3-11.6c0.7-2.1,1.4-4.2,2.2-6.4c-0.5-0.3-0.9-0.6-1.4-0.9c-4.8,3.8-9.6,7.7-14.4,11.5
	c-0.3-0.2-0.7-0.4-1-0.7c0.7-1.3,1.2-2.8,2.2-3.8c4.1-4,8.4-7.9,12.6-11.8c2.9-2.7,4.6-2.9,6.2,1.6c1.6,4.7,1.3,8.3-1.8,12.2
	C311.6,204.3,310.4,207.9,308.6,211.3z"/>
<path class="st1" d="M206.5,174.9c0-2,0-4,0.1-6c0-0.1,2.3-0.1,2.3,0c0.3,2,0.4,3.9,0.6,5.9C208.4,174.9,207.4,174.9,206.5,174.9z"
	/>
<path class="st2" d="M495.7,100.4c-9.5,0.1-14.6,5.3-15.6,14.1c0.5,0.4,0.9,0.8,1.4,1.2C486.2,110.6,491,105.5,495.7,100.4z"/>
<path class="st2" d="M493.7,100.5c-7.4,0.7-11.7,4.8-13.2,11.6c1.6,0.8,1.4,0.7,2.9,1.6c3.6-3.9,7.3-7.8,10.9-11.8
	C494.9,101.4,494.4,100.5,493.7,100.5z"/>
<path class="st2" d="M404.3,150.8c0.1,0.1,0.2,0.3,0.3,0.4c3.7-2.3,11.9-7.3,11.9-7.3c0.5-0.2,0.8-0.2,1.2-0.3
	c1.1-0.1,1.6,1.5,0.6,2.1c-4.1,2.3-8.3,4.7-12.4,7c-0.1,0.1-0.3,0-0.4-0.1c0,0.1,0.1,0.1,0.1,0.2c4.4-2.5,8.9-5,13.3-7.5
	c0.4-0.2,0.5-0.7,0.3-1.1c-0.2-0.4-0.5-0.8-0.7-1.2c-0.2-0.4-0.7-0.5-1.1-0.3C413,145.5,408.6,148.1,404.3,150.8z"/>
<path class="st2" d="M494.4,101.9c0.5-0.5,0.1-1.4-0.7-1.4c-4.3,0.4-7.5,1.9-9.8,4.5c2.7,2.3,1.5,1.3,4.2,3.6
	C490.2,106.4,492.3,104.2,494.4,101.9z"/>
<path class="st2" d="M484,105c0.2-0.2,0.4-0.4,0.6-0.6C484.3,104.6,484.1,104.8,484,105z"/>
<path class="st2" d="M484.8,104.1c0.3-0.3,0.6-0.5,0.9-0.8C485.4,103.6,485.1,103.9,484.8,104.1z"/>
<path class="st2" d="M485.8,103.4c0.3-0.2,0.7-0.5,1-0.7C486.4,102.9,486.1,103.1,485.8,103.4z"/>
<path class="st2" d="M483.2,106c0.2-0.2,0.3-0.4,0.5-0.6C483.5,105.6,483.3,105.8,483.2,106z"/>
<path class="st2" d="M487.1,102.5c0.3-0.1,0.5-0.3,0.8-0.4C487.6,102.2,487.4,102.3,487.1,102.5z"/>
<path class="st2" d="M481.2,109.8c0.1-0.4,0.3-0.8,0.4-1.1C481.4,109.1,481.3,109.5,481.2,109.8z"/>
<path class="st2" d="M480.5,112.1C480.5,112.1,480.5,112.1,480.5,112.1c0-0.1,0.1-0.3,0.1-0.4C480.6,111.8,480.5,112,480.5,112.1z"
	/>
<path class="st2" d="M480.8,111.2c0.1-0.3,0.2-0.6,0.3-0.9C480.9,110.6,480.8,110.9,480.8,111.2z"/>
<path class="st2" d="M488.4,101.9c0.3-0.1,0.5-0.2,0.8-0.3C488.9,101.6,488.6,101.7,488.4,101.9z"/>
<path class="st2" d="M481.7,108.6c0.2-0.4,0.4-0.8,0.6-1.2C482,107.8,481.8,108.2,481.7,108.6z"/>
<path class="st2" d="M482.4,107.1c0.1-0.3,0.3-0.5,0.5-0.7C482.7,106.6,482.6,106.9,482.4,107.1z"/>
<path class="st2" d="M490.9,101c0.5-0.1,0.9-0.2,1.4-0.3C491.9,100.8,491.4,100.9,490.9,101z"/>
<path class="st2" d="M483.4,113.7c0.1-0.1,0.2-0.2,0.2-0.3C483.6,113.5,483.5,113.6,483.4,113.7L483.4,113.7z"/>
<path class="st2" d="M493.7,100.5c-0.4,0-0.9,0.1-1.3,0.2C492.8,100.6,493.3,100.6,493.7,100.5C493.7,100.5,493.7,100.5,493.7,100.5
	z"/>
<path class="st2" d="M489.6,101.4c0.3-0.1,0.6-0.2,0.9-0.3C490.2,101.2,489.9,101.3,489.6,101.4z"/>
<path class="st0" d="M559.5,114.6c-0.8,0-0.9,0-1,0c-0.5,0.5-0.9,1.1-1.4,1.7c-5.6,7.8-12,14.7-20.8,18.9c-1.1,0.5-2.6,0.5-4,0.5
	c-0.4,0-0.8-0.3-0.8-0.7c-0.1-1.3-0.4-2.7,0-3.8c2.2-5.3,4.1-10.9,7.2-15.6c3.9-5.7,4.3-11.2,2.1-17.3c-0.6-1.7-0.9-3.6-1.3-5.4
	c-1.1-5-4.1-6.1-7.9-2.5c-6.5,6.2-12.8,12.5-19.3,18.8c-7.1,7-14.1,14.1-21.5,20.8c-2.6,2.3-6.4,3.6-9.8,4.7
	c-1.6,0.5-5.1-0.2-5.3-1.1c-0.6-2-0.5-5.2,0.7-6.5c5.9-6.3,12.5-12,18.6-18.1c2.5-2.4,5.1-5,6.8-8c2.2-3.9,0.5-7-3.9-8.4
	c-5.6-1.8-14.8,1-17.8,7c-3.4,6.8-8.9,10.4-15,13.8c-3.3,1.9-6.4,4.1-9.6,6.2c-0.5,0.4-1.3-0.1-1.3-0.7c0-0.6,0.2-0.9,0.4-1.3
	c6.9-14.1,4.5-22.4-9.2-28.9c-4.9-2.4-10.5-3.4-15.8-4.9c-6.5-1.8-13.2-2.9-19.6-5c-3.9-1.3-4.9-4.2-2.5-8.4
	c7-12.5,17.7-20.8,30.3-26.7c10.4-4.9,21.3-8.8,33.1-3.8c5.7,2.4,8.2,7.7,5.9,13.3c-0.6,1.5-0.2,3.4-0.1,5.2c0,0.4,0.3,0.7,0.6,0.7
	l1.6,0.4c0.3,0.1,0.7-0.1,0.9-0.3c1.1-1.6,2.6-3.1,2.6-4.7c0.1-5.2,0.1-10.5-1.1-15.4c-0.8-3.3-3.1-6.7-5.7-8.9
	c-9.2-7.8-20-6.5-30.2-3c-7.4,2.5-14.1,7-20.9,11.1c-10.8,6.6-18.2,16.2-22.9,27.9c-4.2,10.5-0.7,17.4,10.1,21.3
	c7.7,2.7,15.3,5.4,23,8.2c7.9,2.9,13.4,8.9,11.8,14.2c-2.8,9.1-6.9,17.3-16.1,22.3c-10.9,6-21.2,13-31.5,19.9
	c-1.3,0.9-2.5,4.2-1.8,5.5c0.8,1.4,3.8,2.8,5.4,2.4c5.7-1.5,11.8-2.8,16.6-6c12.7-8.5,24.8-18.1,37.2-27.1c4.4-3.2,9.1-6.1,13.6-9.1
	c0.2-0.1,0.4-0.2,0.6-0.1c0.5,0.1,1,0.2,1.6,0.4c-6.3,6.5-3.6,12.7-0.8,18.7c1.7,3.7,3.7,6.3,9.1,6.3c7.4,0.1,12.2-3.7,16.8-8
	c6.8-6.4,12.9-13.6,19.6-20.2c4.3-4.2,8.9-8,13.4-12c1.4,0.7,1.5,0.8,2.9,1.5c-0.1,1-0.2,2.1-0.5,3c-1.2,3.3-2.8,6.5-3.9,9.8
	c-2.3,7.2-5.7,14.2-3,22.1c2.8,7.9,8,9.9,14.2,4.3c5.9-5.3,11.4-11.1,16.3-17.3c2.1-2.7,2.8-6.6,4.1-10.4
	C560.4,115.1,560,114.6,559.5,114.6z M480.5,112.1C480.5,112.1,480.5,112.1,480.5,112.1c0-0.1,0.1-0.3,0.1-0.4
	c0-0.2,0.1-0.3,0.1-0.5c0.1-0.3,0.2-0.6,0.3-0.9c0-0.1,0.1-0.3,0.1-0.4c0.1-0.4,0.3-0.8,0.4-1.1c0,0,0-0.1,0-0.1
	c0.2-0.4,0.4-0.8,0.6-1.2c0.1-0.1,0.1-0.2,0.2-0.3c0.1-0.3,0.3-0.5,0.5-0.7c0.1-0.1,0.2-0.2,0.3-0.4c0.2-0.2,0.3-0.4,0.5-0.6
	c0.1-0.1,0.2-0.2,0.3-0.3c0.2-0.2,0.4-0.4,0.6-0.6c0.1-0.1,0.2-0.2,0.3-0.3c0.3-0.3,0.6-0.5,0.9-0.8c0,0,0,0,0,0
	c0.3-0.2,0.7-0.5,1-0.7c0.1-0.1,0.2-0.1,0.3-0.2c0.3-0.1,0.5-0.3,0.8-0.4c0.1-0.1,0.3-0.1,0.4-0.2c0.3-0.1,0.5-0.2,0.8-0.3
	c0.2-0.1,0.3-0.1,0.5-0.2c0.3-0.1,0.6-0.2,0.9-0.3c0.1,0,0.3-0.1,0.4-0.1c0.5-0.1,0.9-0.2,1.4-0.3c0,0,0,0,0.1,0
	c0.4-0.1,0.8-0.1,1.3-0.2c0,0,0,0,0.1,0c0.6-0.1,1.3-0.1,2-0.1c-4,4.3-8,8.6-12,13c-0.1,0.1-0.2,0.2-0.2,0.3l0,0
	c-0.6,0.7-1.3,1.4-1.9,2.1c-0.5-0.4-0.9-0.8-1.4-1.2C480.2,113.7,480.4,112.9,480.5,112.1z"/>
<path class="st1" d="M482.2,107.5c0.1-0.1,0.1-0.2,0.2-0.3C482.4,107.2,482.3,107.3,482.2,107.5z"/>
<path class="st1" d="M494.4,101.9c-3.6,3.8-7.1,7.7-10.7,11.5c4-4.3,8-8.6,12-13c-0.7,0-1.3,0-2,0.1
	C494.4,100.5,494.8,101.4,494.4,101.9z"/>
<path class="st1" d="M481.6,108.7c0,0,0-0.1,0-0.1C481.6,108.6,481.6,108.7,481.6,108.7z"/>
<path class="st1" d="M480.6,111.7c0-0.2,0.1-0.3,0.1-0.5C480.7,111.3,480.7,111.5,480.6,111.7z"/>
<path class="st1" d="M483.4,113.7c-1.5-0.8-1.4-0.7-2.9-1.6c-0.2,0.8-0.3,1.6-0.4,2.4c0.5,0.4,0.9,0.8,1.4,1.2
	C482.2,115,482.8,114.4,483.4,113.7z"/>
<path class="st1" d="M481,110.3c0-0.1,0.1-0.3,0.1-0.4C481.1,110,481.1,110.1,481,110.3z"/>
<path class="st1" d="M492.3,100.7C492.4,100.7,492.4,100.7,492.3,100.7C492.4,100.7,492.4,100.7,492.3,100.7z"/>
<path class="st1" d="M486.8,102.7c0.1-0.1,0.2-0.1,0.3-0.2C487,102.5,486.9,102.6,486.8,102.7z"/>
<path class="st1" d="M484.5,104.4c0.1-0.1,0.2-0.2,0.3-0.3C484.7,104.2,484.6,104.3,484.5,104.4z"/>
<path class="st1" d="M485.7,103.4C485.7,103.4,485.7,103.4,485.7,103.4C485.7,103.4,485.7,103.4,485.7,103.4z"/>
<path class="st1" d="M490.5,101.1c0.1,0,0.3-0.1,0.4-0.1C490.8,101,490.7,101.1,490.5,101.1z"/>
<path class="st1" d="M489.1,101.5c0.2-0.1,0.3-0.1,0.5-0.2C489.5,101.4,489.3,101.5,489.1,101.5z"/>
<path class="st1" d="M482.9,106.4c0.1-0.1,0.2-0.2,0.3-0.4C483.1,106.1,483,106.3,482.9,106.4z"/>
<path class="st1" d="M483.7,105.4c0.1-0.1,0.2-0.2,0.3-0.3C483.9,105.1,483.8,105.3,483.7,105.4z"/>
<path class="st1" d="M487.9,102.1c0.1-0.1,0.3-0.1,0.4-0.2C488.2,101.9,488.1,102,487.9,102.1z"/>
<path class="st3" d="M405.4,152.7C405.4,152.7,405.4,152.7,405.4,152.7c-0.3-0.5-0.5-0.9-0.8-1.4"/>
<path class="st0" d="M242.8,111.9c-0.3-3.9-2.3-7.7-2.7-11.6c-0.5-4.8-6.2-9.1-10.8-7.6c-13.5,4.4-21.7,15.4-31.3,24.7
	c-4,3.9-6.1,9.9-13.2,12c1.3-5.5,2.3-10,3.4-14.5c0.8-3.2,2.6-6.6,2.2-9.6c-0.4-2.8-2.8-5.8-5.1-7.8c-0.7-0.6-4.6,1.5-6.1,3.2
	c-3,3.2-5.3,7.2-8.1,10.6c-5.8,7-11.9,13.8-17.8,20.8c-0.6-0.4-1.2-0.7-1.9-1.1c0.2-1.7,0.2-3.5,0.7-5c2.4-6.4,5.6-12.5,7.1-19
	c0.7-3.1-1.9-6.9-3.1-10.3c-2.4,0.9-5.1,1.4-7.1,2.9c-3.4,2.5-6.7,5.2-9.3,8.5c-1.9,2.4-2.5,5.8-3.7,8.8c0.6,0.3,1.1,0.6,1.7,0.8
	c2.7-2,5.5-4,8.2-6c0.4,0.3,0.7,0.6,1.1,0.9c-1.4,4-3,7.9-4.3,11.9c-1.6,5,2.1,15.7,6.4,17.2c5.9,2,7.3-3.9,9.9-6.9
	c6.3-7,12.2-14.5,18.2-21.8c0.5,0.1,1,0.2,1.5,0.3c-0.4,9.5-6.9,20.2,4.8,28.2c4.2-4.4,8.3-8.6,12.2-12.9c4-4.3,7.8-8.8,11.8-13.2
	c0.5,0.3,0.9,0.6,1.4,0.9c-0.2,1.6-0.6,3.2-0.6,4.8c-0.2,4.4-0.9,8.9-0.4,13.3c0.9,7.7,8.6,13.7,14,11.5
	C235.5,140.2,243.9,127,242.8,111.9z M236.3,118.4c-2,8.1-6.1,15.1-12.4,20.6c-1.5,1.3-4.6,2-6.5,1.4c-1.3-0.4-2.4-3.5-2.5-5.4
	c-0.6-10.5,2.8-19.7,10.6-26.8c2.7-2.4,6.5-3.6,9.8-5.4c-2.3,4.8-2.2,8.9,1,12.9C236.7,116.2,236.5,117.5,236.3,118.4z"/>
<path class="st0" d="M444.3,166.2c-0.6-3.1-1-5.4-1.7-9.2c-2.3,3.3-3.4,5.5-5.1,7.1c-2.3,2.2-4.8,4.5-7.7,5.5
	c-6.8,2.4-13.9,4-20.8,6c-3,0.9-4.7,2.8-3.3,6.1c8.6-2.5,17-5,26.9-7.9c-1.3,3.4-1.6,5.4-2.7,6.7c-8.3,9.9-16.8,19.7-25.4,29.4
	c-0.5,0.6-2.4,0.9-2.8,0.5c-0.8-0.8-1.5-2.2-1.4-3.3c0.1-3,0.9-5.9,0.9-8.9c0.1-6.2-3.2-8.2-8.4-5c-3.7,2.3-7,5.3-11.1,8.4
	c-0.1-2.2,0-3.7-0.3-5c-0.5-1.7-1.5-3.2-2.2-4.8c-1.3,0.7-2.8,1.1-3.9,2.1c-4.4,3.7-8.6,7.6-13,11.4c-1,0.9-2.3,1.5-3.4,2.2
	c-0.5-0.3-1-0.6-1.4-0.9c1.6-5.8,3.2-11.5,4.7-17.3c-0.6-0.2-1.2-0.4-1.7-0.6c-1.5,1.1-3,2.3-4.8,3.6c-1.4-5.1-4.7-5.4-7.7-3
	c-5.2,4.2-10.4,8.7-14.7,13.9c-2,2.4-2.4,6.6-2.3,10c0.2,4.3,3.6,5.6,7.1,3c2.7-1.9,5-4.4,7.5-6.6c2.4-2.2,4.8-4.6,8-7.6
	c0.3,3,0.2,4.5,0.6,5.9c0.5,1.7,1,4,2.2,4.6c1.2,0.5,3.6-0.4,4.8-1.4c2.6-2.1,4.7-4.7,7.1-7c2.1-2,4.4-3.8,7.1-6.1
	c1.2,7.3-9.2,11-3.7,18.5c7.4-6.9,14.4-13.3,21.3-19.7c0.8,0.4,1.7,0.9,2.5,1.3c0,4-0.5,8.1,0.2,12c0.4,2.4,2.5,4.9,4.5,6.4
	c0.7,0.5,3.8-1.5,5.2-2.9c6.6-6.5,13-13.2,19.5-19.8c0.4-0.4,1.1-0.4,1.8-0.7c0.7,8.1-2.9,16.4,3.6,23.2c0.8-2.3,0.9-4.6,0.7-6.8
	c-0.4-4.7-1.2-9.4-1.2-14.1c0-7.1,4.9-12.1,8-18c2.7-5.1,6.7-7,11.5-7.1c4.5-0.1,5.5-2.2,6-6.3C451.2,164.8,447.7,165.5,444.3,166.2
	z M334.8,213.8c-1-7,3.1-10.6,6.5-14.4c3.4-3.6,7.3-6.1,13.4-3.8C349.8,203.6,344,209.8,334.8,213.8z"/>
<path class="st0" d="M379.4,112.7c-4.4,5.2-8.8,10.5-13.2,15.7c-0.6-0.3-1.2-0.7-1.9-1c0.2-2.8,0.1-5.8,0.8-8.5
	c1.5-5.3,3.8-10.4,5.1-15.8c0.5-2-1.2-4.5-1.8-6.8c-1.7,1.2-3.4,2.3-5.1,3.5c-0.7,0.5-1.1,1.3-2,2.6c-0.7-1.3-1.2-1.7-1.3-2.2
	c-1.7-8.2-3.1-8.8-10.7-5.1c-9.9,4.7-16.1,13-21.4,22c-3.8,6.5-6.1,13.3-4.9,21.2c1.3,8.8,7.5,10.9,13.3,4.5
	c5.9-6.4,11.4-13.1,17.1-19.6c0.8-0.9,2-1.6,3.8-3c0,3.1-0.1,4.9,0,6.8c0.1,2,0.5,4.1,0.8,6.1c0.9,5.4,4.5,7.3,8.5,3.8
	c4.3-3.8,8.1-8.1,11.6-12.6C380.8,120.9,380.9,115,379.4,112.7z M330.8,136.8c-1.3-11.6,5.2-19.2,12.4-26.3c4-4,8.9-6.7,15.7-3.5
	C352.1,119.4,343.7,129.9,330.8,136.8z"/>
<path class="st0" d="M616.3,112.6c-4.4,5.2-8.8,10.5-14,16.7c-2.3-8,0.5-13.5,2.5-19.1c1.1-2.9,2.3-5.9,2.7-9
	c0.2-1.5-1.4-3.2-2.2-4.8c-1.5,0.8-3.2,1.4-4.5,2.4c-1,0.8-1.6,2.1-2.6,3.4c-0.7-1-1.2-1.4-1.3-1.8c-2-8.6-3.1-9.1-11.1-5.2
	c-9.6,4.7-15.7,12.8-21,21.7c-4.3,7.3-6.9,15.1-4.3,23.9c1.6,5.6,5.9,7.5,10.4,3.7c4.2-3.6,7.9-7.8,11.7-11.9
	c3.6-3.9,6.9-7.9,10.3-11.9c0.4,0.2,0.8,0.3,1.3,0.5c0,2-0.1,4,0,6c0.1,2,0.5,4.1,0.8,6.1c0.9,5.3,4.7,6.9,8.7,3.3
	c4.1-3.7,8.1-7.8,11.1-12.4c2-3.1,2.2-7.5,3.2-11.3C617.4,112.8,616.9,112.7,616.3,112.6z M567,138.1c-1.5-11.3,4.5-18.2,10.2-24.9
	c4.5-5.3,9.9-9.6,18.8-6.3C588.6,119.3,580.5,130.2,567,138.1z"/>
<path class="st0" d="M288.8,192.6c-1.4-4.3-3.6-6-7.6-4.9c-7.4,2-13,6.8-17.5,13c-0.2,0.3,0.1,1,0.1,1.6c1.2-0.6,2.3-1.2,4.7-2.4
	c-0.6,3.6-1.8,6.2-1.2,8.3c0.8,3.2,2.2,6.8,4.5,8.9c1.4,1.2,5.4,0.7,7.6-0.3C289,212.1,292.1,203.1,288.8,192.6z M275.5,215.4
	c-1.3,0-3.4-2-3.7-3.3c-1.5-8.5,4.1-16.4,13.2-19.6c0.5,2.6,0.7,4.8,1.3,6.9C287.8,204.2,280.6,215.4,275.5,215.4z"/>
<path class="st2" d="M449.2,202.5c4.2-3.7,7.4-6.6,10.7-9.5C453,192.3,450,195,449.2,202.5z"/>
<path class="st0" d="M469,200.5c-5.6,3.9-11.2,7.8-17.1,11.2c-1.3,0.7-3.7-0.4-5.5-0.7c0.8-1.7,1.1-3.8,2.3-4.9
	c3.9-3.6,8.4-6.7,12.3-10.3c1.5-1.4,2.1-3.8,3.2-5.8c-2.4-0.5-4.9-1.8-7-1.3c-6.7,1.4-14.7,11.9-15,18.9c-0.2,4.9,4.1,9.4,8.8,9.2
	c7.2-0.3,19.9-11.3,20.4-19.3C470.5,198.5,470,199.8,469,200.5z M459.9,193c-3.3,2.9-6.6,5.8-10.7,9.5C450,195,453,192.3,459.9,193z
	"/>
</svg>
